# xmcd CD database file
#
# Track frame offsets:
#	150
#	22887
#	58648
#	86183
#	105526
#	159505
#	187821
#	225277
#	258451
#
# Disc length: 4557 seconds
#
# Revision: 0
# Processed by: cddbd v1.5.1PL0 Copyright (c) Steve Scherf et al.
# Submitted via: CDex 1.50
#
DISCID=6211cb09
DTITLE=RinneRadio - Pfft
DYEAR=1997
DGENRE=Jazz
TTITLE0=4
TTITLE1=hkbg
TTITLE2=pi
TTITLE3=puu
TTITLE4=riita
TTITLE5=joki
TTITLE6=paimen
TTITLE7=Jori's lumix
TTITLE8=remix-caborste
EXTD=YEAR: 1997
EXTT0=
EXTT1=
EXTT2=
EXTT3=
EXTT4=
EXTT5=
EXTT6=
EXTT7=
EXTT8=
PLAYORDER=
